<?xml version="1.0" encoding="iso-8859-1"?>
<!-- Generator: Adobe Illustrator 16.0.0, SVG Export Plug-In . SVG Version: 6.00 Build 0)  -->
<!DOCTYPE svg PUBLIC "-//W3C//DTD SVG 1.1//EN" "http://www.w3.org/Graphics/SVG/1.1/DTD/svg11.dtd">
<svg xmlns="http://www.w3.org/2000/svg" xmlns:xlink="http://www.w3.org/1999/xlink" version="1.1" id="&#1057;&#1083;&#1086;&#1081;_1" x="0px" y="0px" width="19.001px" height="17.188px" viewBox="0 0 19.001 17.188" style="enable-background:new 0 0 19.001 17.188;" xml:space="preserve">
<path fill="%1" d="M14.244,3.91H8.943c-0.424,0-0.776,0.347-0.776,0.774s0.352,0.775,0.776,0.775h5.301  c0.425,0,0.777-0.348,0.777-0.775S14.669,3.91,14.244,3.91z M14.244,7.819H8.943c-0.424,0-0.776,0.348-0.776,0.775  c0,0.428,0.352,0.775,0.776,0.775h5.301c0.425,0,0.777-0.347,0.777-0.775C15.021,8.167,14.669,7.819,14.244,7.819z M14.244,11.729  H8.943c-0.424,0-0.776,0.348-0.776,0.775c0,0.427,0.352,0.774,0.776,0.774h5.301c0.425,0,0.777-0.347,0.777-0.774  C15.021,12.076,14.669,11.729,14.244,11.729z M14.244,3.91H8.943c-0.424,0-0.776,0.347-0.776,0.774s0.352,0.775,0.776,0.775h5.301  c0.425,0,0.777-0.348,0.777-0.775S14.669,3.91,14.244,3.91z M14.244,7.819H8.943c-0.424,0-0.776,0.348-0.776,0.775  c0,0.428,0.352,0.775,0.776,0.775h5.301c0.425,0,0.777-0.347,0.777-0.775C15.021,8.167,14.669,7.819,14.244,7.819z M14.244,11.729  H8.943c-0.424,0-0.776,0.348-0.776,0.775c0,0.427,0.352,0.774,0.776,0.774h5.301c0.425,0,0.777-0.347,0.777-0.774  C15.021,12.076,14.669,11.729,14.244,11.729z M14.244,11.729H8.943c-0.424,0-0.776,0.348-0.776,0.775  c0,0.427,0.352,0.774,0.776,0.774h5.301c0.425,0,0.777-0.347,0.777-0.774C15.021,12.076,14.669,11.729,14.244,11.729z M14.244,7.819  H8.943c-0.424,0-0.776,0.348-0.776,0.775c0,0.428,0.352,0.775,0.776,0.775h5.301c0.425,0,0.777-0.347,0.777-0.775  C15.021,8.167,14.669,7.819,14.244,7.819z M14.244,3.91H8.943c-0.424,0-0.776,0.347-0.776,0.774s0.352,0.775,0.776,0.775h5.301  c0.425,0,0.777-0.348,0.777-0.775S14.669,3.91,14.244,3.91z M14.244,3.91H8.943c-0.424,0-0.776,0.347-0.776,0.774  s0.352,0.775,0.776,0.775h5.301c0.425,0,0.777-0.348,0.777-0.775S14.669,3.91,14.244,3.91z M14.244,7.819H8.943  c-0.424,0-0.776,0.348-0.776,0.775c0,0.428,0.352,0.775,0.776,0.775h5.301c0.425,0,0.777-0.347,0.777-0.775  C15.021,8.167,14.669,7.819,14.244,7.819z M14.244,11.729H8.943c-0.424,0-0.776,0.348-0.776,0.775c0,0.427,0.352,0.774,0.776,0.774  h5.301c0.425,0,0.777-0.347,0.777-0.774C15.021,12.076,14.669,11.729,14.244,11.729z M14.244,11.729H8.943  c-0.424,0-0.776,0.348-0.776,0.775c0,0.427,0.352,0.774,0.776,0.774h5.301c0.425,0,0.777-0.347,0.777-0.774  C15.021,12.076,14.669,11.729,14.244,11.729z M14.244,7.819H8.943c-0.424,0-0.776,0.348-0.776,0.775  c0,0.428,0.352,0.775,0.776,0.775h5.301c0.425,0,0.777-0.347,0.777-0.775C15.021,8.167,14.669,7.819,14.244,7.819z M14.244,3.91  H8.943c-0.424,0-0.776,0.347-0.776,0.774s0.352,0.775,0.776,0.775h5.301c0.425,0,0.777-0.348,0.777-0.775S14.669,3.91,14.244,3.91z   M14.244,3.91H8.943c-0.424,0-0.776,0.347-0.776,0.774s0.352,0.775,0.776,0.775h5.301c0.425,0,0.777-0.348,0.777-0.775  S14.669,3.91,14.244,3.91z M14.244,7.819H8.943c-0.424,0-0.776,0.348-0.776,0.775c0,0.428,0.352,0.775,0.776,0.775h5.301  c0.425,0,0.777-0.347,0.777-0.775C15.021,8.167,14.669,7.819,14.244,7.819z M14.244,11.729H8.943c-0.424,0-0.776,0.348-0.776,0.775  c0,0.427,0.352,0.774,0.776,0.774h5.301c0.425,0,0.777-0.347,0.777-0.774C15.021,12.076,14.669,11.729,14.244,11.729z   M14.244,11.729H8.943c-0.424,0-0.776,0.348-0.776,0.775c0,0.427,0.352,0.774,0.776,0.774h5.301c0.425,0,0.777-0.347,0.777-0.774  C15.021,12.076,14.669,11.729,14.244,11.729z M14.244,7.819H8.943c-0.424,0-0.776,0.348-0.776,0.775  c0,0.428,0.352,0.775,0.776,0.775h5.301c0.425,0,0.777-0.347,0.777-0.775C15.021,8.167,14.669,7.819,14.244,7.819z M14.244,3.91  H8.943c-0.424,0-0.776,0.347-0.776,0.774s0.352,0.775,0.776,0.775h5.301c0.425,0,0.777-0.348,0.777-0.775S14.669,3.91,14.244,3.91z   M8.943,5.459h5.301c0.425,0,0.777-0.348,0.777-0.775S14.669,3.91,14.244,3.91H8.943c-0.424,0-0.776,0.347-0.776,0.774  S8.519,5.459,8.943,5.459z M14.244,7.819H8.943c-0.424,0-0.776,0.348-0.776,0.775c0,0.428,0.352,0.775,0.776,0.775h5.301  c0.425,0,0.777-0.347,0.777-0.775C15.021,8.167,14.669,7.819,14.244,7.819z M14.244,11.729H8.943c-0.424,0-0.776,0.348-0.776,0.775  c0,0.427,0.352,0.774,0.776,0.774h5.301c0.425,0,0.777-0.347,0.777-0.774C15.021,12.076,14.669,11.729,14.244,11.729z M18.322,0  H5.082C4.667,0,4.188,0.338,4.188,0.775v4.221H0.896C0.479,4.996,0,5.334,0,5.771v8.033c0,1.719,1.049,3.054,2.551,3.25h0.054  l0.036,0.018c0.126,0.072,0.308,0.116,0.461,0.116H16.08c1.773,0,2.921-1.327,2.921-3.384V0.775C19.001,0.312,18.73,0,18.322,0z   M4.188,13.804c0,1.016-0.542,1.728-1.312,1.728c-0.777,0-1.302-0.694-1.302-1.728V6.546h2.614V13.804z M17.427,13.804  c0,0.454,0,1.835-1.347,1.835H5.444l0.172-0.428c0.145-0.374,0.145-0.828,0.145-1.318V1.55h11.666V13.804z M8.943,5.459h5.301  c0.425,0,0.777-0.348,0.777-0.775S14.669,3.91,14.244,3.91H8.943c-0.424,0-0.776,0.347-0.776,0.774S8.519,5.459,8.943,5.459z   M8.943,9.369h5.301c0.425,0,0.777-0.347,0.777-0.775c0-0.427-0.352-0.775-0.777-0.775H8.943c-0.424,0-0.776,0.348-0.776,0.775  C8.167,9.021,8.519,9.369,8.943,9.369z M8.943,13.278h5.301c0.425,0,0.777-0.347,0.777-0.774c0-0.428-0.352-0.775-0.777-0.775H8.943  c-0.424,0-0.776,0.348-0.776,0.775C8.167,12.931,8.519,13.278,8.943,13.278z M14.244,11.729H8.943c-0.424,0-0.776,0.348-0.776,0.775  c0,0.427,0.352,0.774,0.776,0.774h5.301c0.425,0,0.777-0.347,0.777-0.774C15.021,12.076,14.669,11.729,14.244,11.729z M14.244,7.819  H8.943c-0.424,0-0.776,0.348-0.776,0.775c0,0.428,0.352,0.775,0.776,0.775h5.301c0.425,0,0.777-0.347,0.777-0.775  C15.021,8.167,14.669,7.819,14.244,7.819z M14.244,3.91H8.943c-0.424,0-0.776,0.347-0.776,0.774s0.352,0.775,0.776,0.775h5.301  c0.425,0,0.777-0.348,0.777-0.775S14.669,3.91,14.244,3.91z M14.244,3.91H8.943c-0.424,0-0.776,0.347-0.776,0.774  s0.352,0.775,0.776,0.775h5.301c0.425,0,0.777-0.348,0.777-0.775S14.669,3.91,14.244,3.91z M14.244,7.819H8.943  c-0.424,0-0.776,0.348-0.776,0.775c0,0.428,0.352,0.775,0.776,0.775h5.301c0.425,0,0.777-0.347,0.777-0.775  C15.021,8.167,14.669,7.819,14.244,7.819z M14.244,11.729H8.943c-0.424,0-0.776,0.348-0.776,0.775c0,0.427,0.352,0.774,0.776,0.774  h5.301c0.425,0,0.777-0.347,0.777-0.774C15.021,12.076,14.669,11.729,14.244,11.729z M14.244,11.729H8.943  c-0.424,0-0.776,0.348-0.776,0.775c0,0.427,0.352,0.774,0.776,0.774h5.301c0.425,0,0.777-0.347,0.777-0.774  C15.021,12.076,14.669,11.729,14.244,11.729z M14.244,7.819H8.943c-0.424,0-0.776,0.348-0.776,0.775  c0,0.428,0.352,0.775,0.776,0.775h5.301c0.425,0,0.777-0.347,0.777-0.775C15.021,8.167,14.669,7.819,14.244,7.819z M14.244,3.91  H8.943c-0.424,0-0.776,0.347-0.776,0.774s0.352,0.775,0.776,0.775h5.301c0.425,0,0.777-0.348,0.777-0.775S14.669,3.91,14.244,3.91z   M14.244,3.91H8.943c-0.424,0-0.776,0.347-0.776,0.774s0.352,0.775,0.776,0.775h5.301c0.425,0,0.777-0.348,0.777-0.775  S14.669,3.91,14.244,3.91z M14.244,7.819H8.943c-0.424,0-0.776,0.348-0.776,0.775c0,0.428,0.352,0.775,0.776,0.775h5.301  c0.425,0,0.777-0.347,0.777-0.775C15.021,8.167,14.669,7.819,14.244,7.819z M14.244,11.729H8.943c-0.424,0-0.776,0.348-0.776,0.775  c0,0.427,0.352,0.774,0.776,0.774h5.301c0.425,0,0.777-0.347,0.777-0.774C15.021,12.076,14.669,11.729,14.244,11.729z   M14.244,11.729H8.943c-0.424,0-0.776,0.348-0.776,0.775c0,0.427,0.352,0.774,0.776,0.774h5.301c0.425,0,0.777-0.347,0.777-0.774  C15.021,12.076,14.669,11.729,14.244,11.729z M14.244,7.819H8.943c-0.424,0-0.776,0.348-0.776,0.775  c0,0.428,0.352,0.775,0.776,0.775h5.301c0.425,0,0.777-0.347,0.777-0.775C15.021,8.167,14.669,7.819,14.244,7.819z M14.244,3.91  H8.943c-0.424,0-0.776,0.347-0.776,0.774s0.352,0.775,0.776,0.775h5.301c0.425,0,0.777-0.348,0.777-0.775S14.669,3.91,14.244,3.91z   M14.244,3.91H8.943c-0.424,0-0.776,0.347-0.776,0.774s0.352,0.775,0.776,0.775h5.301c0.425,0,0.777-0.348,0.777-0.775  S14.669,3.91,14.244,3.91z M14.244,7.819H8.943c-0.424,0-0.776,0.348-0.776,0.775c0,0.428,0.352,0.775,0.776,0.775h5.301  c0.425,0,0.777-0.347,0.777-0.775C15.021,8.167,14.669,7.819,14.244,7.819z M14.244,11.729H8.943c-0.424,0-0.776,0.348-0.776,0.775  c0,0.427,0.352,0.774,0.776,0.774h5.301c0.425,0,0.777-0.347,0.777-0.774C15.021,12.076,14.669,11.729,14.244,11.729z"/>
</svg>
