<?xml version="1.0" encoding="utf-8"?>
<!-- Generator: Adobe Illustrator 16.0.0, SVG Export Plug-In . SVG Version: 6.00 Build 0)  -->
<!DOCTYPE svg PUBLIC "-//W3C//DTD SVG 1.1//EN" "http://www.w3.org/Graphics/SVG/1.1/DTD/svg11.dtd">
<svg xmlns="http://www.w3.org/2000/svg" xmlns:xlink="http://www.w3.org/1999/xlink" version="1.1" id="Layer_1" x="0px" y="0px" width="135.563px" height="136.004px" viewBox="-0.974 -290.139 135.563 136.004" enable-background="new -0.974 -290.139 135.563 136.004" xml:space="preserve">
<g>
	<g>
		<polygon fill="%1" points="133.615,-196.26 133.615,-154.135 66.916,-154.135 66.916,-234.865 91.493,-234.865     91.493,-196.26   "/>
		<path fill="%2" d="M66.916-234.865H42.34v38.605H0.218v42.125h66.698V-234.865z"/>
		<path fill="%3" d="M23.046-170.173v-0.049l1.468-1.221c2.296-2.051,4.228-4.179,4.228-6.847c0-2.88-1.98-4.986-5.569-4.986    c-2.154,0-4.009,0.737-5.21,1.636l1.053,2.668c0.829-0.639,2.03-1.32,3.393-1.32c1.84,0,2.62,1.025,2.62,2.324    c-0.05,1.854-1.736,3.639-5.204,6.742l-2.058,1.86v2.247h11.271v-3.055H23.046z"/>
		<path fill="%4" d="M105.606-170.894c0.66,0.342,2.176,0.979,3.69,0.979c1.931,0,2.909-0.931,2.909-2.128    c0-1.563-1.566-2.272-3.204-2.272h-1.515v-2.665h1.443c1.245-0.024,2.834-0.489,2.834-1.833c0-0.954-0.783-1.663-2.347-1.663    c-1.296,0-2.665,0.563-3.325,0.953l-0.756-2.688c0.952-0.61,2.857-1.197,4.912-1.197c3.396,0,5.279,1.785,5.279,3.96    c0,1.687-0.952,3.006-2.909,3.689v0.049c1.907,0.343,3.446,1.784,3.446,3.862c0,2.812-2.469,4.865-6.502,4.865    c-2.054,0-3.789-0.538-4.717-1.124L105.606-170.894z"/>
		<polygon fill="%5" points="71.665,-208.615 71.665,-205.865 63.635,-205.865 63.635,-208.615 65.855,-208.615     65.855,-218.445 65.805,-218.445 62.775,-217.005 62.165,-219.795 66.365,-221.743 69.455,-221.743 69.455,-208.615   "/>
	</g>
	<g>
		<path fill="%6" d="M120.46-258.895c0.26-0.526,0.759-0.836,1.346-0.837c0.586,0,1.085,0.311,1.345,0.836l2.79,5.65    c0.226,0.457,0.624,0.746,1.129,0.82l6.231,0.907c0.58,0.085,1.029,0.463,1.21,1.021c0.182,0.558,0.04,1.128-0.38,1.537    l-4.51,4.395c-0.366,0.356-0.519,0.825-0.432,1.328l1.066,6.21c0.1,0.578-0.122,1.123-0.597,1.468s-1.061,0.387-1.58,0.114    l-5.576-2.933c-0.452-0.237-0.944-0.237-1.396,0l-5.571,2.932c-0.519,0.273-1.104,0.231-1.58-0.113    c-0.475-0.345-0.695-0.889-0.597-1.467l1.063-6.211c0.086-0.503-0.066-0.971-0.432-1.327l-4.509-4.396    c-0.42-0.409-0.561-0.979-0.379-1.537c0.181-0.559,0.63-0.937,1.21-1.021l6.235-0.907c0.505-0.074,0.903-0.363,1.129-0.821    L120.46-258.895z"/>
		<path fill="%7" d="M65.46-289.302c0.259-0.526,0.758-0.836,1.345-0.836c0.586,0,1.085,0.31,1.345,0.836l4.297,8.708    c0.226,0.458,0.624,0.747,1.129,0.82l9.61,1.399c0.58,0.084,1.029,0.463,1.21,1.021c0.182,0.558,0.041,1.128-0.379,1.537    l-6.951,6.778c-0.365,0.356-0.518,0.824-0.432,1.327l1.639,9.572c0.099,0.578-0.122,1.122-0.597,1.467s-1.061,0.387-1.58,0.113    l-8.594-4.518c-0.452-0.238-0.944-0.238-1.396,0l-8.59,4.518c-0.519,0.272-1.105,0.23-1.58-0.114s-0.696-0.889-0.597-1.467    l1.64-9.57c0.086-0.503-0.066-0.971-0.431-1.328l-6.951-6.778c-0.42-0.409-0.561-0.979-0.379-1.538    c0.181-0.558,0.63-0.936,1.21-1.021l9.608-1.399c0.505-0.073,0.903-0.363,1.129-0.821L65.46-289.302z M13.155-258.895    c-0.259-0.526-0.758-0.837-1.345-0.837c-0.587,0-1.086,0.31-1.346,0.836l-2.79,5.65c-0.226,0.457-0.624,0.746-1.129,0.82    l-6.231,0.907c-0.581,0.085-1.029,0.463-1.21,1.021c-0.181,0.559-0.041,1.129,0.38,1.538l4.509,4.396    c0.365,0.356,0.518,0.824,0.431,1.327l-1.064,6.211c-0.099,0.578,0.123,1.122,0.597,1.467s1.061,0.388,1.58,0.114l5.576-2.933    c0.452-0.237,0.944-0.237,1.396,0l5.572,2.933c0.519,0.272,1.105,0.23,1.58-0.114c0.475-0.344,0.696-0.888,0.597-1.466    l-1.063-6.212c-0.086-0.503,0.066-0.971,0.432-1.327l4.509-4.396c0.42-0.409,0.561-0.979,0.38-1.537    c-0.181-0.559-0.63-0.937-1.211-1.021l-6.236-0.907c-0.505-0.074-0.904-0.363-1.129-0.821L13.155-258.895z"/>
	</g>
</g>
</svg>
