<?xml version="1.0" encoding="iso-8859-1"?>
<!-- Generator: Adobe Illustrator 16.0.0, SVG Export Plug-In . SVG Version: 6.00 Build 0)  -->
<!DOCTYPE svg PUBLIC "-//W3C//DTD SVG 1.1//EN" "http://www.w3.org/Graphics/SVG/1.1/DTD/svg11.dtd">
<svg version="1.1" id="&#x421;&#x43B;&#x43E;&#x439;_1"
	 xmlns="http://www.w3.org/2000/svg" xmlns:xlink="http://www.w3.org/1999/xlink" x="0px" y="0px" width="17px" height="17px"
	 viewBox="-0.01 0 17 17" style="enable-background:new -0.01 0 17 17;" xml:space="preserve">
<path fill="#7F7F7F" d="M15.055,8.502c0,3.611-2.95,6.555-6.566,6.555c-3.614,0-6.565-2.943-6.565-6.555
	c0-3.612,2.95-6.555,6.565-6.555c1.84,0,3.615,0.789,4.862,2.165l0.139,0.154h-2.646c-0.327-0.005-0.63,0.164-0.793,0.436
	c-0.166,0.275-0.166,0.613,0,0.887c0.163,0.273,0.468,0.439,0.793,0.435h5.141V1.02c0.003-0.254-0.107-0.494-0.303-0.665
	c-0.195-0.168-0.455-0.247-0.713-0.215h-0.001c-0.453,0.056-0.793,0.435-0.791,0.88v1.175C12.674,0.834,10.675,0,8.49,0
	c-4.681,0-8.5,3.82-8.5,8.5c0,4.68,3.82,8.5,8.5,8.5c4.68,0,8.499-3.82,8.499-8.5h-1.935V8.502z"/>
</svg>
